<svg width="1743" height="668" viewBox="0 0 1743 668" fill="none" xmlns="http://www.w3.org/2000/svg">
<g clip-path="url(#clip0_8781_3490)">
<path d="M265.65 482.697C271.439 498.108 276.475 514.055 276.252 530.514C275.504 585.73 241.402 637.411 186.533 657.933C115.103 684.645 35.5278 648.433 8.79708 577.05C-17.9337 505.667 18.3021 426.141 89.7319 399.429C91.0176 398.949 92.3054 398.488 93.5957 398.048L131.773 497.617C130.178 497.943 128.587 498.399 127.014 498.987C110.605 505.126 102.281 523.395 108.421 539.794C114.562 556.19 132.842 564.51 149.251 558.372C165.66 552.237 173.984 533.968 167.844 517.569C167.681 517.137 167.511 516.71 167.332 516.287L103.887 350.752L103.516 350.938L98.1153 336.089C50.3752 207.72 115.606 64.8903 244.017 16.8666C372.608 -31.2239 515.86 33.9669 563.983 162.474L566.475 169.127C612.901 293.104 553.572 431.65 431.773 483.682C391.757 500.776 348.58 509.011 305.203 507.904L262.995 398.295L297.075 401.059C328.807 403.632 360.689 398.441 389.962 385.935C459.484 356.234 493.349 277.152 466.849 206.385L464.357 199.732C436.829 126.21 354.869 88.9125 281.299 116.426C207.729 143.94 170.408 225.846 197.94 299.368L210.8 334.729L210.716 334.68L213.001 340.783L233.034 395.866L265.65 482.697Z" fill="#06130D"/>
<path d="M974.857 469.257C956.488 469.257 940.632 464.729 927.293 455.677C913.958 446.621 903.639 434.551 896.342 419.46C889.294 404.118 885.77 387.267 885.77 368.908C885.77 349.794 889.797 332.691 897.848 317.601C906.152 302.259 917.858 290.187 932.957 281.385C948.31 272.33 966.552 267.804 987.693 267.804C1008.58 267.804 1026.33 272.33 1040.92 281.385C1055.77 290.187 1067.09 302.259 1074.9 317.601C1082.95 332.691 1086.98 349.542 1086.98 368.153V464.729H1043.56V428.89H1042.81C1039.04 435.933 1034.13 442.596 1028.09 448.883C1022.05 454.921 1014.62 459.825 1005.81 463.596C997.004 467.372 986.686 469.257 974.857 469.257ZM986.563 432.285C997.888 432.285 1007.7 429.52 1016.01 423.985C1024.56 418.202 1031.11 410.531 1035.64 400.974C1040.42 391.166 1042.81 380.225 1042.81 368.153C1042.81 356.081 1040.55 345.392 1036.01 336.086C1031.48 326.529 1025.07 318.984 1016.76 313.451C1008.46 307.667 998.515 304.775 986.94 304.775C974.857 304.775 964.539 307.667 955.985 313.451C947.426 318.984 940.886 326.529 936.355 336.086C931.824 345.643 929.56 356.458 929.56 368.53C929.56 380.351 931.824 391.166 936.355 400.974C940.886 410.531 947.303 418.202 955.608 423.985C964.162 429.52 974.481 432.285 986.563 432.285Z" fill="#06130D"/>
<path d="M1118.52 464.73V327.031C1118.52 309.929 1123.3 296.599 1132.87 287.042C1142.68 277.233 1156.14 272.329 1173.26 272.329H1219.69V309.3H1181.18C1175.15 309.3 1170.36 311.06 1166.84 314.581C1163.57 318.102 1161.93 322.881 1161.93 328.917V464.73H1118.52Z" fill="#06130D"/>
<path d="M1328.72 464.729C1307.07 464.729 1288.07 460.704 1271.71 452.659C1255.61 444.359 1243.03 433.042 1233.96 418.705C1224.91 404.118 1220.38 387.393 1220.38 368.53C1220.38 348.662 1224.4 331.182 1232.45 316.092C1240.51 301.002 1251.58 289.181 1265.68 280.63C1279.77 272.079 1296 267.804 1314.37 267.804C1335.01 267.804 1352 272.205 1365.33 281.007C1378.67 289.81 1388.49 301.631 1394.78 316.469C1401.32 331.308 1404.59 347.907 1404.59 366.267C1404.59 368.782 1404.47 371.674 1404.22 374.944C1403.97 378.213 1403.58 380.728 1403.08 382.489H1266.43C1267.94 392.549 1271.59 400.974 1277.38 407.765C1283.17 414.304 1290.46 419.334 1299.27 422.857C1308.08 426.125 1317.89 427.761 1328.72 427.761H1380.43V464.729H1328.72ZM1266.05 353.063H1361.18C1360.93 348.284 1360.17 343.506 1358.91 338.727C1357.91 333.949 1356.15 329.422 1353.63 325.146C1351.37 320.87 1348.35 317.224 1344.57 314.206C1341.05 310.936 1336.77 308.421 1331.74 306.661C1326.7 304.649 1320.91 303.643 1314.37 303.643C1306.82 303.643 1300.15 305.152 1294.36 308.17C1288.58 310.936 1283.67 314.709 1279.64 319.487C1275.61 324.014 1272.47 329.296 1270.2 335.332C1268.19 341.117 1266.81 347.027 1266.05 353.063Z" fill="#06130D"/>
<path d="M1488.54 465.288C1471.43 465.288 1457.96 460.383 1448.15 450.575C1438.58 440.766 1433.8 427.436 1433.8 410.587V224.601H1476.84V408.701C1476.84 414.485 1478.6 419.263 1482.12 423.035C1485.65 426.556 1490.3 428.319 1496.09 428.319H1536.48V465.288H1488.54ZM1400.58 309.86V272.889H1536.86V309.86H1400.58Z" fill="#06130D"/>
<path d="M1639.43 469.257C1619.55 469.257 1601.93 464.856 1586.58 456.054C1571.23 446.998 1559.02 434.927 1549.96 419.837C1541.15 404.495 1536.75 387.393 1536.75 368.53C1536.75 349.668 1541.15 332.691 1549.96 317.601C1559.02 302.259 1571.23 290.187 1586.58 281.385C1601.93 272.33 1619.55 267.804 1639.43 267.804C1659.06 267.804 1676.55 272.33 1691.9 281.385C1707.25 290.187 1719.33 302.134 1728.14 317.224C1737.2 332.314 1741.73 349.416 1741.73 368.53C1741.73 387.393 1737.2 404.495 1728.14 419.837C1719.33 434.927 1707.25 446.998 1691.9 456.054C1676.55 464.856 1659.06 469.257 1639.43 469.257ZM1639.43 432.285C1651.26 432.285 1661.57 429.52 1670.38 423.985C1679.19 418.202 1685.98 410.531 1690.77 400.974C1695.55 391.417 1697.94 380.602 1697.94 368.53C1697.94 356.71 1695.55 346.021 1690.77 336.464C1685.98 326.655 1679.19 318.984 1670.38 313.451C1661.57 307.667 1651.26 304.775 1639.43 304.775C1627.35 304.775 1616.9 307.667 1608.1 313.451C1599.54 318.984 1592.74 326.529 1587.71 336.086C1582.93 345.643 1580.54 356.458 1580.54 368.53C1580.54 380.351 1582.93 391.166 1587.71 400.974C1592.74 410.531 1599.54 418.202 1608.1 423.985C1616.9 429.52 1627.35 432.285 1639.43 432.285Z" fill="#06130D"/>
<path d="M683.269 464.374V200.299H794.254C811.117 200.299 826.465 204.197 840.308 211.993C854.404 219.539 865.602 230.227 873.907 244.06C882.212 257.641 886.362 273.486 886.362 291.594C886.362 309.451 882.212 325.295 873.907 339.128C865.852 352.961 854.781 363.775 840.684 371.572C826.846 379.117 811.239 382.889 793.877 382.889H728.193V464.374H683.269ZM728.193 343.278H788.593C798.408 343.278 807.216 341.266 815.017 337.242C823.068 333.218 829.363 327.307 833.89 319.511C838.675 311.714 841.065 302.535 841.065 291.971C841.065 280.905 838.675 271.6 833.89 264.054C829.363 256.258 823.068 250.348 815.017 246.324C807.216 242.048 798.531 239.91 788.97 239.91H728.193V343.278Z" fill="#06130D"/>
</g>
<defs>
<clipPath id="clip0_8781_3490">
<rect width="1743" height="668" fill="white"/>
</clipPath>
</defs>
</svg>
